<svg width="89" height="102" viewBox="0 0 89 102" fill="none" xmlns="http://www.w3.org/2000/svg">
<path d="M44.3593 0L88.666 25.5011V76.4989L44.3593 102L0 76.4989V25.5011L44.3593 0Z" fill="#391270"/>
<path d="M44.3593 6.35888V0L0 25.5011L5.55808 28.6696L44.3593 6.35888Z" fill="#6739B1"/>
<path d="M44.3594 95.6541V102L88.7231 76.4988L83.2089 73.3259L44.3594 95.6541Z" fill="#491D86"/>
<path d="M44.3594 6.35888V0L88.6661 25.5011L83.1519 28.6696L44.3594 6.35888Z" fill="#A15FE3"/>
<path d="M44.3593 95.6541V102L0 76.4988L5.57124 73.3259L44.3593 95.6541Z" fill="#1F0543"/>
<path d="M5.55808 28.6696L0 25.5011V76.4989L5.57124 73.326L5.55808 28.6696Z" fill="#491D86"/>
<path d="M15.2397 51.1901C15.2397 42.3664 22.3902 35.1509 31.2472 35.1509C37.8142 35.1509 43.074 39.0492 45.592 44.6914L39.8365 46.3478C38.2178 43.1661 35.2479 40.9285 31.2472 40.8804C25.4917 40.8804 21.2628 45.4518 21.2628 51.1858C21.2628 56.9197 25.4917 61.443 31.2472 61.443C35.2479 61.443 38.1257 59.3802 39.7444 56.1549L45.592 57.7238C43.074 63.2786 37.8142 67.1769 31.2472 67.1769C22.3902 67.1769 15.2397 60.0095 15.2397 51.1814V51.1901Z" fill="url(#paint0_linear_5226_4034)"/>
<path d="M61.5995 42.7246C58.6296 42.7683 56.1599 43.9352 54.4929 45.7708V33.4725L48.6453 36.8333V66.8709H54.4929V64.3186C56.1555 66.0667 58.5858 67.2293 61.5995 67.2293C68.5262 67.2293 73.4263 61.6308 73.4263 54.9966C73.4263 48.3624 68.2981 42.6328 61.5995 42.7202V42.7246ZM61.0599 61.9455C57.2829 61.9455 54.0893 58.7639 54.0893 55.001C54.0893 51.2381 57.239 48.0127 61.0599 48.0127C64.8808 48.0127 67.9867 51.2381 67.9867 55.001C67.9867 58.7639 64.8369 61.9455 61.0599 61.9455Z" fill="url(#paint1_linear_5226_4034)"/>
<path d="M83.1519 73.3173L88.6661 76.5033V25.5011L83.1519 28.6696V73.3173Z" fill="#6739B1"/>
<defs>
<linearGradient id="paint0_linear_5226_4034" x1="30.4137" y1="67.1857" x2="30.4137" y2="35.1553" gradientUnits="userSpaceOnUse">
<stop stop-color="#DECEF0"/>
<stop offset="1" stop-color="#FEFEFE"/>
</linearGradient>
<linearGradient id="paint1_linear_5226_4034" x1="61.038" y1="67.2293" x2="61.038" y2="33.4725" gradientUnits="userSpaceOnUse">
<stop stop-color="#DECEF0"/>
<stop offset="1" stop-color="#FEFEFE"/>
</linearGradient>
</defs>
</svg>
